<?xml version="1.0" encoding="utf-8"?>
<!-- Generator: Adobe Illustrator 21.1.0, SVG Export Plug-In . SVG Version: 6.00 Build 0)  -->
<svg version="1.1" id="Ñëîé_1" xmlns="http://www.w3.org/2000/svg" xmlns:xlink="http://www.w3.org/1999/xlink" x="0px" y="0px"
	 viewBox="0 0 40 40" style="enable-background:new 0 0 40 40;" xml:space="preserve">
<style type="text/css">
	.st0{fill:#FFFFFF;}
	.st1{fill:#77CACD;}
</style>
<g>
	<g>
		<path class="st0" d="M20,40C9,40,0,31,0,20S9,0,20,0c11,0,20,9,20,20S31,40,20,40z"/>
	</g>
	<g>
		<path class="st1" d="M26.3,30.2H13.6c2.4-3.5,4.3-6.3,5.5-8.5c1.3-2.2,2.1-3.6,2.4-4.4c0.3-0.8,0.4-1.5,0.4-2.1
			c0-0.9-0.3-1.6-0.8-2.2c-0.5-0.5-1.2-0.8-2.1-0.8c-1.8,0-3.4,1-4.8,3.2L13.8,12c0.4-0.7,1.1-1.3,2.1-2c1-0.6,2.3-1,3.9-1
			c2,0,3.4,0.6,4.4,1.7c0.9,1.1,1.4,2.4,1.4,3.9c0,1.3-0.4,2.9-1.3,4.8c-0.8,1.8-2.2,4.2-4.2,7.1h6.1L26.3,30.2L26.3,30.2z"/>
	</g>
</g>
</svg>
