<?xml version="1.0" encoding="utf-8"?>
<!-- Generator: Adobe Illustrator 21.1.0, SVG Export Plug-In . SVG Version: 6.00 Build 0)  -->
<svg version="1.1" id="Ñëîé_1" xmlns="http://www.w3.org/2000/svg" xmlns:xlink="http://www.w3.org/1999/xlink" x="0px" y="0px"
	 viewBox="0 0 40 40" style="enable-background:new 0 0 40 40;" xml:space="preserve">
<style type="text/css">
	.st0{fill:#FFFFFF;}
	.st1{fill:#77CACD;}
</style>
<g>
	<g>
		<path class="st0" d="M20,40C9,40,0,31,0,20S9,0,20,0c11,0,20,9,20,20S31,40,20,40z"/>
	</g>
	<g>
		<path class="st1" d="M18.9,30.6c-1.2,0-2.3-0.2-3.5-0.6c-1.1-0.4-1.8-0.7-2.1-1l0.9-3.5c0.4,0.4,1.1,0.8,1.9,1s1.7,0.4,2.6,0.4
			c2.7,0,4-1,4-3c0-1.1-0.3-1.9-0.8-2.6s-1.6-1-3-1h-2.7l0.3-3H18c2.6,0,3.9-0.9,3.9-2.7c0-1.6-1-2.5-3-2.5c-1.7,0-2.9,0.3-3.6,1
			l-0.6-2.8c0.3-0.3,1-0.7,1.8-0.9c0.9-0.3,1.8-0.4,2.9-0.4c1.3,0,2.3,0.2,3.2,0.5c0.9,0.3,1.6,0.8,2,1.4c0.4,0.6,0.7,1.2,0.9,1.7
			c0.2,0.6,0.3,1.2,0.3,1.8c0,1.8-0.7,3.2-1.9,4.1c1.8,1.1,2.7,2.8,2.7,5.1c0,2.2-0.7,3.9-2.2,5C22.8,30,21,30.6,18.9,30.6z"/>
	</g>
</g>
</svg>
