<?xml version="1.0" encoding="utf-8"?>
<!-- Generator: Adobe Illustrator 21.1.0, SVG Export Plug-In . SVG Version: 6.00 Build 0)  -->
<svg version="1.1" id="Ñëîé_1" xmlns="http://www.w3.org/2000/svg" xmlns:xlink="http://www.w3.org/1999/xlink" x="0px" y="0px"
	 viewBox="0 0 283.5 283.5" style="enable-background:new 0 0 283.5 283.5;" xml:space="preserve">
<style type="text/css">
	.st0{fill:#001D3E;}
	.st1{fill:#FFFFFF;}
	.st2{fill:#CE332F;}
	.st3{fill:none;stroke:#CE332F;stroke-miterlimit:10;}
</style>
<ellipse transform="matrix(6.375473e-03 -1 1 6.375473e-03 -3.0182 282.1835)" class="st0" cx="140.5" cy="142.6" rx="126.4" ry="126.4"/>
<g>
	<g>
		<path class="st1" d="M193.6,80.5h-24.4v10.6h-54.4V80.5H90.1c-0.6,0-1.2,0.6-1.2,1.2v117.6c0,0.6,0.6,1.2,1.2,1.2h103.5
			c0.6,0,1.2-0.6,1.2-1.2V81.7C194.8,81.1,194.2,80.5,193.6,80.5z"/>
		<path class="st2" d="M153.3,71.4c-0.6-5.9-5.6-10.3-11.5-10.3s-10.9,4.4-11.5,10.3h-15.6v9.4v10.6h54.1V80.8v-9.4H153.3z"/>
	</g>
	<path class="st2" d="M128,109.4l-2.1-1.8l-2.4,2.6v-4.1h-18.8v18.8h18.8v-10.6L128,109.4z M122.5,123.8H106v-16.5h16.5v4.1
		l-5.3,6.2l-4.4-4.4l-2.1,2.1l6.5,6.5l5.3-5.9V123.8z"/>
	<path class="st2" d="M128.9,137.3l-2.1-1.8l-2.6,2.6v-4.1h-18.8v18.8h18.8v-10.6L128.9,137.3z M123.3,151.7h-16.8v-16.5H123v4.1
		l-5.3,6.2l-4.4-4.4l-2.1,2.1l6.5,6.5l5.3-5.9v7.9H123.3z"/>
	<path class="st2" d="M128.9,165.5l-2.1-1.8l-2.6,2.6v-4.1h-18.8v18.8h18.8v-10.6L128.9,165.5z M123.3,179.9h-16.8v-16.5H123v4.1
		l-5.3,6.2l-4.4-4.4l-2.1,2.1l6.5,6.5l5.3-5.9v7.9H123.3z"/>
	<line class="st3" x1="131.5" y1="123.9" x2="182.6" y2="123.9"/>
	<line class="st3" x1="131.5" y1="151.8" x2="182.6" y2="151.8"/>
	<g>
		<path class="st2" d="M175.9,226.8c-22.4,0-40.6-18.2-40.6-40.6s18.2-40.6,40.6-40.6s40.6,18.2,40.6,40.6S198.3,226.8,175.9,226.8z
			"/>
		<path class="st1" d="M175.9,149.1c20.5,0,37.1,16.6,37.1,37.1s-16.6,37.1-37.1,37.1c-20.5,0-37.1-16.6-37.1-37.1
			S155.4,149.1,175.9,149.1 M175.9,142.1c-24.3,0-44.1,19.8-44.1,44.1s19.8,44.1,44.1,44.1s44.1-19.8,44.1-44.1
			S200.2,142.1,175.9,142.1L175.9,142.1z"/>
	</g>
	<g>
		<path class="st1" d="M177.3,182.3c-4.5-0.6-6.1-1.8-6.9-2.6c-1.8-1.6-0.9-7.6,5.5-7.6c3.5,0,6.4,2.4,6.4,5.4l9.9,0
			c0-6.2-4.9-11.4-11.5-13.1v-4.9h-9.5l0,4.9c-14.8,3.7-17.6,24.2,4.6,26.8c3.1,0.4,4.9,1.3,5.6,2c2.1,1.9,1,7.4-5.4,7.4
			c-2.6,0-4.9-1.3-5.8-3.2h-10.2c1,5.2,5.4,9.5,11.3,11l0,4.4h9.5v-4.4C193.9,205.8,199.4,185.2,177.3,182.3z"/>
	</g>
</g>
</svg>
