<?xml version="1.0" encoding="utf-8"?>
<!-- Generator: Adobe Illustrator 21.1.0, SVG Export Plug-In . SVG Version: 6.00 Build 0)  -->
<svg version="1.1" id="Ñëîé_1" xmlns="http://www.w3.org/2000/svg" xmlns:xlink="http://www.w3.org/1999/xlink" x="0px" y="0px"
	 viewBox="0 0 283.5 283.5" style="enable-background:new 0 0 283.5 283.5;" xml:space="preserve">
<style type="text/css">
	.st0{fill:#001D3E;}
	.st1{fill-rule:evenodd;clip-rule:evenodd;fill:#CE332F;}
	.st2{fill:#FFFFFF;}
	.st3{fill-rule:evenodd;clip-rule:evenodd;fill:#FFFFFF;}
</style>
<g>
	
		<ellipse transform="matrix(6.375473e-03 -1 1 6.375473e-03 -3.7093 281.3079)" class="st0" cx="139.7" cy="142.5" rx="126.5" ry="126.5"/>
</g>
<g>
	<path class="st1" d="M88.4,131.8c-10.8,0-19.6-8.8-19.6-19.6s8.8-19.6,19.6-19.6s19.6,8.8,19.6,19.6S99.2,131.8,88.4,131.8z"/>
	<path class="st2" d="M88.4,96.2c8.9,0,16.1,7.2,16.1,16.1c0,8.9-7.2,16.1-16.1,16.1s-16.1-7.2-16.1-16.1
		C72.3,103.4,79.5,96.2,88.4,96.2 M88.4,89.2c-12.7,0-23.1,10.4-23.1,23.1s10.4,23.1,23.1,23.1s23.1-10.4,23.1-23.1
		S101.1,89.2,88.4,89.2L88.4,89.2z"/>
</g>
<path class="st3" d="M182,56.6c-2.1,0-3.8,1.7-3.8,3.8v8.2c0,2.1,1.7,3.8,3.8,3.8c7.3,0,12.5-0.8,15.8-2.5c4.2,0.9,7.3,4.7,7.3,9.1
	c0,31.5-10.2,51.4-23.3,59.9c-0.8,0.5-1.6,1-2.4,1.4c-6-6.5-18.9-6.5-24.9,0c-0.8-0.4-1.6-0.9-2.4-1.4
	c-13.1-8.5-23.3-28.4-23.3-59.9c0-4.6,3.4-8.4,7.8-9.2c3.3,1.7,8.6,2.5,16,2.5c2.1,0,3.8-1.7,3.8-3.8v-8.2c0-2.1-1.7-3.8-3.8-3.8
	c-6.7,0-12,0.9-15.4,2.5c-10.5,0.5-19,9.3-19,20c0,35.5,12.3,58.5,28.2,68.8c1.7,1.1,3.4,2.1,5.2,2.9c0.6,5.2,3.8,11.7,10.7,19.5
	v13.4c0,9.4-3.8,17.9-10,24.1c-13.4,13.4-34.8,13.4-48.2,0c-6.2-6.2-10-14.7-10-24.1v-47.7c11-2.6,19.1-12.4,19.1-24.1
	c0-13.7-11.1-24.8-24.8-24.8c-13.7,0-24.8,11.1-24.8,24.8c0,11.9,8.5,21.9,19.7,24.3v47.6c0,12.3,5,23.5,13.2,31.7
	c17.5,17.5,45.8,17.5,63.3,0c8.1-8.1,13.2-19.3,13.2-31.7v-14.6c6.2-7.3,9-13.3,9.6-18.2c1.8-0.8,3.5-1.8,5.2-2.9
	c15.8-10.3,28.2-33.3,28.2-68.8c0-10.4-8.1-19.1-18.3-19.9C194.1,57.5,188.8,56.6,182,56.6L182,56.6z M88.3,97.6
	c-7.8,0-14.1,6.3-14.1,14.1c0,7.8,6.3,14.1,14.1,14.1s14.1-6.3,14.1-14.1C102.4,103.9,96.1,97.6,88.3,97.6L88.3,97.6z"/>
<g>
	<path class="st1" d="M140.3,68.2c2.2,1.1,5.9,1.7,10.9,1.7c1.4,0,2.6-1.2,2.6-2.6v-5.6c0-1.4-1.2-2.6-2.6-2.6
		c-4.6,0-8.6,0.9-10.9,2L140.3,68.2z"/>
</g>
<g>
	<path class="st1" d="M194.4,61.1c-2.3-1.1-6.3-2-10.9-2c-1.4,0-2.6,1.2-2.6,2.6v5.6c0,1.4,1.2,2.6,2.6,2.6c5.1,0,8.7-0.6,10.9-1.7
		L194.4,61.1z"/>
</g>
</svg>
