<?xml version="1.0" encoding="utf-8"?>
<!-- Generator: Adobe Illustrator 21.1.0, SVG Export Plug-In . SVG Version: 6.00 Build 0)  -->
<svg version="1.1" id="Ñëîé_1" xmlns="http://www.w3.org/2000/svg" xmlns:xlink="http://www.w3.org/1999/xlink" x="0px" y="0px"
	 viewBox="0 0 283.5 283.5" style="enable-background:new 0 0 283.5 283.5;" xml:space="preserve">
<style type="text/css">
	.st0{fill:#001D3E;}
	.st1{fill:#FFFFFF;}
	.st2{fill:#CE332F;}
</style>
<g>
	
		<ellipse transform="matrix(6.375473e-03 -1 1 6.375473e-03 -3.7093 281.3079)" class="st0" cx="139.7" cy="142.5" rx="126.5" ry="126.5"/>
</g>
<g>
	<path class="st1" d="M139.2,131.7c-11.8-1.5-16-4.8-18.2-6.7c-4.7-4.2-2.3-19.9,14.5-19.9c9.2,0,16.7,6.3,16.7,14.1l26.1,0
		c0-16.3-12.8-30-30.3-34.5V71.7h-25.1l0,12.9C84,94.3,76.6,148.3,135,155.1c8.1,0.9,12.8,3.5,14.7,5.2c5.5,5,2.5,19.6-14.3,19.6
		c-6.9,0-12.8-3.5-15.4-8.5H93.1c2.5,13.8,14.2,24.9,29.7,28.9l0,11.7H148v-11.7C182.9,193.5,197.4,139.3,139.2,131.7z"/>
	<g>
		<path class="st2" d="M179.6,129.4h16l0-2c0-16.3-7.8-31.2-21.4-41.7c0.5,0,1,0,1.4,0c24.1,0,42.8,22.4,42.8,41.7v2h15.3
			l-27.1,27.1L179.6,129.4z"/>
		<path class="st1" d="M179.9,88c20.9,2.4,36.6,22.3,36.6,39.5v4h4h8.5l-22.3,22.3l-22.3-22.3h9.2h4l0-4
			C197.6,112.4,191.3,98.5,179.9,88 M175.7,83.7c-2.3,0-4.6,0.2-7,0.6c14.4,9.2,24.9,24.3,24.9,43.1h-18.9l31.9,32l32-32h-18.1
			C220.5,106.5,200.7,83.7,175.7,83.7L175.7,83.7z"/>
	</g>
</g>
</svg>
