<?xml version="1.0" encoding="utf-8"?>
<!-- Generator: Adobe Illustrator 21.1.0, SVG Export Plug-In . SVG Version: 6.00 Build 0)  -->
<svg version="1.1" id="Ñëîé_1" xmlns="http://www.w3.org/2000/svg" xmlns:xlink="http://www.w3.org/1999/xlink" x="0px" y="0px"
	 viewBox="0 0 283.5 283.5" style="enable-background:new 0 0 283.5 283.5;" xml:space="preserve">
<style type="text/css">
	.st0{fill:#001D3E;}
	.st1{fill-rule:evenodd;clip-rule:evenodd;fill:#CE332F;}
	.st2{fill-rule:evenodd;clip-rule:evenodd;fill:#FFFFFF;}
	.st3{fill:#CE332F;stroke:#CE332E;stroke-miterlimit:10;}
</style>
<g>
	
		<ellipse transform="matrix(6.375473e-03 -1 1 6.375473e-03 -3.7093 281.3079)" class="st0" cx="139.7" cy="142.5" rx="126.5" ry="126.5"/>
</g>
<g>
	<ellipse class="st1" cx="93.7" cy="122.7" rx="25.3" ry="32.1"/>
</g>
<g>
	<path class="st2" d="M93.7,82.6c-9.8,0-18.1,3.8-24.9,11.4c-6.8,7.6-10.3,17.3-10.3,29.2c0,12.4,3.2,22,9.6,28.8
		c6.4,6.8,15.1,10.3,26.2,10.3c4.7,0,8.9-0.9,12.6-2.8c3.7-1.9,6.7-4.6,8.7-8l0.3,0.4c-0.2,12.5-2.4,21.6-6.7,27.3
		c-4.3,5.6-10.1,8.5-17.5,8.5c-4.2,0-7.9-0.3-11.2-1c-3.3-0.6-6.5-1.7-9.7-3.2l-2.3,11.6c3.3,1.6,7,2.7,11.1,3.5s8.2,1.1,12.1,1.1
		c12.2,0,21.9-4.3,29.2-12.9c7.3-8.6,11-21.8,11-39.5v-20.5c0-14.5-3.4-25.5-10.3-32.9C114.9,86.3,105.6,82.6,93.7,82.6z
		 M116.6,137.1c-1.7,3.8-4.4,6.9-8.2,9.4c-3.8,2.4-8.5,3.7-14.2,3.7c-6.4,0-11.3-2.5-15-7.4c-3.6-4.9-5.5-11.5-5.5-19.6
		c0-8.3,2-15.1,5.9-20.5c3.9-5.3,8.7-8,14.4-8c7.3,0,12.9,2.6,16.7,7.7c3.8,5.1,5.7,12.7,5.7,22.7V137.1z"/>
	<path class="st2" d="M207.2,94.3c-6.5-7.8-15.4-11.7-26.5-11.7c-11.1,0-19.9,3.9-26.4,11.7c-6.5,7.8-9.7,18.9-9.7,33.4v26.9
		c0,14.5,3.3,25.6,9.8,33.3c6.5,7.8,15.3,11.6,26.5,11.6c11.2,0,20-3.9,26.5-11.6c6.5-7.7,9.7-18.9,9.7-33.4v-26.9
		C217,113.2,213.7,102.1,207.2,94.3z"/>
</g>
<g>
	<path class="st3" d="M174.6,117.2c-2.2-2.6-5-3.9-8.5-3.9c-3.5,0-6.4,1.4-8.7,4.1c-2.3,2.7-3.4,6.3-3.4,10.7
		c0,4.3,1.1,7.7,3.2,10.3c2.1,2.6,5,3.9,8.5,3.9c3.7,0,6.6-1.3,8.8-4c2.2-2.7,3.3-6.2,3.3-10.7C177.9,123.2,176.8,119.8,174.6,117.2
		z M165.8,136.2c-1.7,0-3-0.6-4-1.9c-1-1.3-1.5-3.3-1.5-6.1c0-2.9,0.6-5.1,1.7-6.5c1.1-1.4,2.5-2.2,4.1-2.2c1.6,0,2.9,0.7,4,2
		c1.1,1.3,1.7,3.4,1.7,6.1C171.7,133.3,169.8,136.2,165.8,136.2z"/>
	<polygon class="st3" points="201.2,113.7 168.1,169.5 160,169.5 193.1,113.7 	"/>
	<path class="st3" d="M205.8,144.2c-2.2-2.6-5-3.9-8.5-3.9c-3.5,0-6.4,1.4-8.7,4.1c-2.3,2.7-3.4,6.3-3.4,10.7
		c0,4.3,1.1,7.7,3.2,10.3c2.1,2.6,5,3.9,8.5,3.9c3.7,0,6.6-1.3,8.9-4c2.2-2.7,3.4-6.2,3.4-10.7C209.1,150.2,208,146.8,205.8,144.2z
		 M197,163.1c-1.7,0-3-0.6-4-1.9c-1-1.3-1.5-3.3-1.5-6.1c0-2.9,0.6-5.1,1.7-6.5c1.1-1.4,2.5-2.2,4.1-2.2c1.6,0,2.9,0.7,4,2
		c1.1,1.3,1.7,3.4,1.7,6.1C202.9,160.3,201,163.1,197,163.1z"/>
</g>
</svg>
