<?xml version="1.0" encoding="utf-8"?>
<!-- Generator: Adobe Illustrator 21.0.2, SVG Export Plug-In . SVG Version: 6.00 Build 0)  -->
<svg version="1.1" id="Layer_1" xmlns="http://www.w3.org/2000/svg" xmlns:xlink="http://www.w3.org/1999/xlink" x="0px" y="0px"
	 viewBox="0 0 531.7 251.7" style="enable-background:new 0 0 531.7 251.7;" xml:space="preserve">
<style type="text/css">
	.st0{fill:#FFFFFF;}
	.st1{fill-rule:evenodd;clip-rule:evenodd;fill:#FFFFFF;}
</style>
<g>
	<g>
		<path class="st0" d="M69.8,136.6v-18.4H20.2c-6.3,0-11-1.4-14.1-4.3c-3.1-2.8-4.7-6.7-4.7-11.6c0-1.3,0.2-2.5,0.7-3.8
			c0.5-1.3,1.2-2.6,2.1-4.1C5.1,93.1,6,91.8,7,90.5c1-1.3,2.2-2.9,3.7-4.8l52.4-70.1c3.4-4.6,6.2-8,8.5-10c2.2-2.1,4.9-3.1,8-3.1
			c10,0,15,5.7,15,17.2v76.5h4.3c5.1,0,9.1,0.7,12.2,2.1c3.1,1.4,4.6,4.4,4.6,9.1c0,3.8-1.3,6.6-3.8,8.4c-2.5,1.7-6.3,2.6-11.3,2.6
			h-6v18.4c0,5.1-1.1,8.9-3.4,11.3c-2.2,2.5-5.2,3.7-9,3.7c-3.7,0-6.7-1.3-9-3.8C71,145.3,69.8,141.6,69.8,136.6z M27.3,96.1h42.5
			V38.6L27.3,96.1z"/>
	</g>
	<g>
		<path class="st0" d="M173.1,107H153v30.6c0,4.4-1,7.7-3.1,10s-4.7,3.4-7.8,3.4c-3.3,0-6-1.1-8-3.4s-3-5.5-3-9.9V54.4
			c0-4.8,1.1-8.3,3.3-10.3c2.2-2.1,5.7-3.1,10.6-3.1h28.1c8.3,0,14.7,0.6,19.2,1.9c4.4,1.2,8.3,3.3,11.5,6.1s5.7,6.4,7.3,10.5
			c1.7,4.1,2.5,8.8,2.5,14c0,11-3.4,19.4-10.2,25.1C196.7,104.2,186.5,107,173.1,107z M167.8,57.4H153v33.1h14.8
			c5.2,0,9.5-0.5,13-1.6c3.5-1.1,6.1-2.9,7.9-5.3c1.8-2.5,2.7-5.7,2.7-9.7c0-4.8-1.4-8.7-4.2-11.7C184.1,59,177.6,57.4,167.8,57.4z"
			/>
	</g>
	<g>
		<path class="st0" d="M384.2,132.1l-17.5-64.9L349,132.1c-1.4,4.9-2.5,8.5-3.3,10.6c-0.8,2.1-2.2,4.1-4.2,5.8s-4.7,2.5-8,2.5
			c-2.7,0-4.9-0.5-6.7-1.5c-1.7-1-3.2-2.4-4.2-4.3s-2-4-2.7-6.6c-0.7-2.5-1.3-4.9-1.8-7.1l-18-72.9c-1.1-4.2-1.6-7.5-1.6-9.7
			c0-2.8,1-5.2,3-7.1c2-1.9,4.4-2.9,7.3-2.9c4,0,6.7,1.3,8,3.8c1.4,2.6,2.6,6.3,3.6,11.1l14.2,63.2l15.9-59.1
			c1.2-4.5,2.2-8,3.2-10.3c0.9-2.4,2.5-4.4,4.6-6.1c2.1-1.7,5-2.6,8.6-2.6c3.7,0,6.6,0.9,8.6,2.7c2,1.8,3.5,3.8,4.2,5.9
			c0.8,2.1,1.8,5.6,3.2,10.5l16,59.1l14.2-63.2c0.7-3.3,1.3-5.9,2-7.8c0.6-1.9,1.7-3.5,3.2-5c1.5-1.5,3.7-2.2,6.5-2.2
			c2.9,0,5.3,0.9,7.3,2.8c2,1.9,3,4.3,3,7.1c0,2-0.5,5.2-1.6,9.7l-18,72.9c-1.2,4.9-2.3,8.5-3.1,10.8c-0.8,2.3-2.2,4.3-4.1,6
			c-1.9,1.7-4.7,2.6-8.2,2.6c-3.3,0-6-0.8-8-2.5c-2-1.7-3.4-3.6-4.2-5.6C386.8,140.8,385.6,137.2,384.2,132.1z"/>
	</g>
	<g>
		<path class="st0" d="M531.7,116.7c0,6.5-1.7,12.4-5.1,17.6c-3.4,5.2-8.3,9.3-14.8,12.3c-6.5,3-14.2,4.4-23.1,4.4
			c-10.7,0-19.5-2-26.4-6.1c-4.9-2.9-8.9-6.8-12-11.6c-3.1-4.8-4.6-9.6-4.6-14.1c0-2.7,0.9-4.9,2.8-6.8c1.8-1.9,4.2-2.8,7.1-2.8
			c2.3,0,4.3,0.7,5.9,2.2c1.6,1.5,3,3.7,4.1,6.6c1.4,3.4,2.9,6.3,4.5,8.6c1.6,2.3,3.9,4.2,6.8,5.7c2.9,1.5,6.7,2.3,11.4,2.3
			c6.5,0,11.8-1.5,15.8-4.5c4.1-3,6.1-6.8,6.1-11.3c0-3.6-1.1-6.5-3.3-8.8c-2.2-2.2-5-3.9-8.5-5.1c-3.5-1.2-8.1-2.4-13.9-3.8
			c-7.8-1.8-14.3-3.9-19.5-6.4c-5.2-2.4-9.4-5.8-12.5-10c-3.1-4.2-4.6-9.4-4.6-15.7c0-6,1.6-11.2,4.9-15.9c3.2-4.6,8-8.2,14.1-10.7
			c6.2-2.5,13.4-3.7,21.7-3.7c6.6,0,12.4,0.8,17.2,2.5c4.8,1.6,8.9,3.8,12.1,6.6c3.2,2.7,5.5,5.6,7,8.6c1.5,3,2.2,5.9,2.2,8.8
			c0,2.6-0.9,5-2.8,7.1c-1.8,2.1-4.1,3.1-6.9,3.1c-2.5,0-4.4-0.6-5.7-1.9c-1.3-1.3-2.7-3.3-4.2-6.2c-2-4.1-4.3-7.3-7.1-9.6
			c-2.8-2.3-7.2-3.4-13.3-3.4c-5.7,0-10.2,1.2-13.7,3.7c-3.5,2.5-5.2,5.5-5.2,9c0,2.2,0.6,4,1.8,5.6c1.2,1.6,2.8,2.9,4.9,4.1
			c2.1,1.1,4.2,2,6.3,2.7c2.1,0.6,5.6,1.6,10.5,2.8c6.1,1.4,11.6,3,16.6,4.7c4.9,1.7,9.2,3.8,12.6,6.3c3.5,2.5,6.2,5.6,8.1,9.3
			C530.7,106.6,531.7,111.3,531.7,116.7z"/>
	</g>
</g>
<g>
	<path class="st1" d="M288.4,143.8c-0.6-2.4-2.1-3.2-2.1-3.2c-0.4-1.6-2.5-1.8-2.5-1.8c-2.1-3-1.8-7.1-1.8-7.1s0.4-0.6,0.7-1.4
		c0.3-0.8,0.8-2.4,0.7-3.2c-0.1-0.8,0.1-1.9,0.4-2.1c0.2-0.2,0.5-1.2,0.7-1.4c0.2-0.2,0.7-2.9,0-7.1s-4.3-9.6-4.3-9.6
		s-0.4-4.6-0.4-8.6c0.1-3.9-1.4-13.3-2.1-16.1c-0.8-2.7-0.1-2.6,0-5.7c0.1-3.1-1.8-11.1-1.8-11.1c-0.9-2.7-3.9-11.4-3.9-11.4
		s-0.9-1.7-1.8-3.8c-0.8-1.7-1.7-3.7-2.1-5.1c-1-3.1-2.1-4.6-2.5-4.6s-0.1-3.2,0-3.9s0.7-1.4,0.7-1.4s1.4-2.4,2.1-4.3
		c0.8-1.9,1.3-4,1.4-6.1c0.1-2.1,0.3-6.4,0.4-6.8c0.1-0.4,0.8-1,1.1-1.4c0.3-0.4,0.7-0.7,0.7-0.7s1.1-1.6,1.4-2.1
		c0.4-0.5,1.1-0.4,1.1-0.4s1.1,2.2,2.1,3.9c1.1,1.7,7.1,1.1,7.5,1.1c0.4-0.1,1.4,1.1,2.1,1.1c0.8-0.1-0.7-2.5-0.7-2.5
		s-1.3-0.5-2.9-5c-1.6-4.5-5.7-8-7.5-8.9c-1.8-0.9-6.1-1.4-8.2-1.4s-3.7,0.7-4.6,0.7s-6.6-2.1-8.9-2.1c-2.3-0.1-7.9,1.4-7.9,1.4
		s-2.5,0.9-2.9,0.4c-0.4-0.6-1.4-0.7-1.4-0.7c-6.6,0.1-13.2,3.6-15,5.7c-1.8,2.1-5.4,7.9-6.1,8.9c-0.6,1-1.2,3.5-0.4,4.6
		c0.9,1.1,6.8-0.4,6.8-0.4s3.1-0.9,3.9-1.8c0.8-0.9,0.9-2.1,1.4-3.2c0.6-1.1,0.3-1.1,0.7-1.1c0.4,0.1,0.4,1.3,0.7,1.8
		c0.3,0.5,1.1-0.2,1.4,0.4c0.3,0.6,0,4.5,0,6.1c0,1.6,0.9,8.1,1.4,8.9c0.6,0.9,0.8,3.5,0.7,5s-1.8,2.9-1.8,2.9
		c-3.5,2.9-5.4,9.1-6.4,11.8c-1.1,2.7-2.9,6.1-4.6,11.4s-1.9,15.6-1.8,16.4c0.1,0.9,1.7,4.6,0,6.8c-1.7,2.1-2.5,16.6-2.9,21.4
		c-0.4,4.8-1.7,6.5-2.1,8.6c-0.4,2.1-0.6,7.2-1.1,8.2c-0.5,1-1.5,3.5-1.8,6.8c-0.3,3.3-2.9,7.4-3.9,8.6c-1,1.2-2.1,1.8-2.1,1.8
		c-2.5,0.5-3.4,5.3-3.9,7.1s2.8,1.4,4.3,1.4c1.5,0.1,4.4-0.2,5.7-0.4c1.4-0.1,3.6,0,4.3-0.7c0.7-0.7,0.7-1.2,1.1-2.1
		s1.1-2.1,1.4-2.5c0.3-0.4,1.4-2.4,1.8-3.2c0.4-0.9,0.6-4.3,0.7-5s0.4-2.9,0.7-3.6s1.1-6.1,1.1-6.1s0.4,0.2,1.1,2.5
		c0.6,2.3,2.1,3.8,2.5,4.3c0.4,0.5,1.8,1.8,1.8,1.8c0.1,2.6,1.8,3.9,1.8,3.9c-1.4-0.1-2.1,1.1-2.1,1.1c-2.4-1.4-3.2,1.8-3.2,1.8
		c-1.7,0.1-1.6,5.5-1.4,6.1c0.2,0.6,5.9,1.2,7.7,0.7c-0.1-0.4,0-0.8,0.1-1.1c0.6-1.2,2-2.2,3.4-2.1c1.4,0.1,0.5-5.4,0.3-6.2
		c-0.2-0.8-0.9-4.2-1.3-7c-0.3-2.8-0.9-7.3-0.8-9.8c0.1-2.5-0.4-4.6-0.5-5.9c-0.1-1.3-1.1-6.7-0.8-9.3c0.3-2.6,2-6.1,2.3-7
		c0.3-0.9,0.5-1.8,0.3-3.1c-0.2-1.3-1.5-4.2-2.1-5.2c-0.6-0.9-1.1-2.2-1.3-3.4c-0.2-1.1-0.8-2.1-1-2.8c-0.2-0.8,0-2.3-0.3-3.6
		c-0.2-1.3-0.7-2-1-4.1c-0.3-2.1,0-4.3,0.5-4.9s2.6,0,3.4,0.5c0.8,0.6,6.2,5.7,6.2,5.7s6.4-2.8,11.6,0.3c0,0,6.8-4,8.3-4.6
		c1.5-0.6,4.6-1,4.6,0.8c0.1,1.8-0.3,2-0.5,3.1c-0.3,1.1-2.5,5.6-2.8,6.2c0,0-1.5,4.1-2.8,5.2c0,0-0.3,1.4-1,2.8
		c-0.7,1.4-2.3,3.4-2.3,3.4s-0.6,2.1,0,3.4c0.6,1.3,1.1,2.3,1.3,3.6c0.2,1.4-0.3,4.4,0.5,5.9c0.8,1.5,3.7,3.8,4.9,7
		c1.2,3.2,1.1,4.4,2.1,4.9c1,0.5,3.7,0.7,5.4,2.3s5.7,8,5.9,10.6s0.3,7.2-0.5,8.5c-0.8,1.3-1.3,1.5-1.3,1.5s0.5,1.1-0.3,2.1
		c-0.7,1-2.3,1.8-2.3,1.8s-0.1,0.5-0.5,0.9c0.2,0.5,0.4,0.7,0.4,0.7c7,0.8,11.7,0.1,12.8,0s1.1-1.1,1.1-1.1s1.5,0.5,2.9,0
		C289.8,147.2,289,146.2,288.4,143.8z"/>
</g>
<g>
	<g>
		<path class="st0" d="M3.2,191h8.6v60H3.2V191z"/>
	</g>
	<g>
		<path class="st0" d="M79.4,191h8.2v60h-7.4l-40.1-46.2V251H32v-60h7l40.5,46.6V191z"/>
	</g>
	<g>
		<path class="st0" d="M121.9,225.9l-6.5-4c-4.1-2.5-7-5-8.7-7.4c-1.7-2.4-2.6-5.2-2.6-8.4c0-4.7,1.6-8.6,4.9-11.5
			c3.3-3,7.5-4.4,12.8-4.4c5,0,9.6,1.4,13.8,4.2v9.8c-4.3-4.2-9-6.2-14-6.2c-2.8,0-5.1,0.7-6.9,1.9c-1.8,1.3-2.7,3-2.7,5
			c0,1.8,0.7,3.5,2,5.1c1.3,1.6,3.5,3.2,6.4,4.9l6.6,3.9c7.3,4.4,11,9.9,11,16.7c0,4.8-1.6,8.7-4.8,11.7c-3.2,3-7.4,4.5-12.6,4.5
			c-5.9,0-11.3-1.8-16.2-5.5v-10.9c4.6,5.9,10,8.8,16.1,8.8c2.7,0,4.9-0.7,6.7-2.2c1.8-1.5,2.7-3.4,2.7-5.6
			C129.8,232.6,127.2,229.1,121.9,225.9z"/>
	</g>
	<g>
		<path class="st0" d="M195.7,191h8.6V225c0,4.6-0.3,8.1-1,10.4c-0.7,2.3-1.5,4.3-2.5,5.9c-1,1.6-2.2,3-3.6,4.2
			c-4.8,4.1-11,6.1-18.7,6.1c-7.8,0-14.1-2-18.8-6.1c-1.4-1.3-2.6-2.7-3.6-4.2c-1-1.6-1.8-3.5-2.5-5.7c-0.6-2.3-1-5.8-1-10.7v-34
			h8.6V225c0,5.6,0.6,9.6,1.9,11.8c1.3,2.2,3.3,4,5.9,5.3c2.6,1.3,5.7,2,9.3,2c5.1,0,9.3-1.3,12.5-4c1.7-1.4,2.9-3.1,3.7-5.1
			c0.7-1.9,1.1-5.3,1.1-10V191z"/>
	</g>
	<g>
		<path class="st0" d="M223.2,251v-60h15c6.1,0,10.9,1.5,14.5,4.5c3.6,3,5.4,7.1,5.4,12.2c0,3.5-0.9,6.5-2.6,9.1
			c-1.7,2.5-4.3,4.5-7.5,5.7c1.9,1.3,3.8,3,5.6,5.2c1.8,2.2,4.4,6,7.7,11.4c2.1,3.4,3.8,6,5,7.7l3.2,4.3h-10.2l-2.6-4
			c-0.1-0.1-0.3-0.4-0.5-0.7l-1.7-2.4l-2.7-4.4l-2.9-4.7c-1.8-2.5-3.4-4.4-4.9-5.9c-1.5-1.5-2.8-2.5-4-3.2s-3.2-1-6-1h-2.2V251
			H223.2z M234.3,198.3h-2.6v19h3.3c4.4,0,7.3-0.4,9-1.1c1.6-0.7,2.9-1.9,3.8-3.4c0.9-1.5,1.4-3.2,1.4-5.1c0-1.9-0.5-3.6-1.5-5.1
			c-1-1.5-2.4-2.6-4.2-3.2C241.6,198.6,238.5,198.3,234.3,198.3z"/>
	</g>
	<g>
		<path class="st0" d="M301.8,190.6h6l26.9,60.4H326l-8-17.8h-25.6l-7.5,17.8H276L301.8,190.6z M314.5,225.6l-9.7-21.7l-9,21.7
			H314.5z"/>
	</g>
	<g>
		<path class="st0" d="M395.7,191h8.2v60h-7.4l-40.1-46.2V251h-8.1v-60h7l40.5,46.6V191z"/>
	</g>
	<g>
		<path class="st0" d="M475,237.1v9.5c-6.3,3.4-13.6,5.2-21.8,5.2c-6.7,0-12.4-1.3-17.1-4c-4.7-2.7-8.4-6.4-11.1-11.1
			c-2.7-4.7-4.1-9.8-4.1-15.3c0-8.7,3.1-16.1,9.3-22c6.2-6,13.9-8.9,23.1-8.9c6.3,0,13.3,1.6,21,4.9v9.2c-7-4-13.9-6-20.6-6
			c-6.9,0-12.6,2.2-17.1,6.5c-4.5,4.3-6.8,9.8-6.8,16.3c0,6.6,2.2,12,6.7,16.2c4.5,4.2,10.2,6.4,17.1,6.4
			C461,243.8,468.1,241.6,475,237.1z"/>
	</g>
	<g>
		<path class="st0" d="M492.2,191h34v7.6h-25.4v18.3h24.6v7.7h-24.6v18.7h26.3v7.7h-34.9V191z"/>
	</g>
</g>
<path class="st0" d="M528.3,166.4H3.2c-1.8,0-3.2,1.4-3.2,3.2c0,1.8,1.4,3.2,3.2,3.2h525.1c1.8,0,3.2-1.4,3.2-3.2
	C531.5,167.8,530.1,166.4,528.3,166.4z"/>
</svg>
